<svg t="1650166575910" class="icon" viewBox="0 0 1024 1024" version="1.1" xmlns="http://www.w3.org/2000/svg" p-id="2837" width="1em" height="1em"><path d="M650.922667 47.445333c17.066667 4.164267 31.163733 14.336 42.2912 30.446934 11.127467 16.145067 17.408 36.181333 18.909866 60.177066 0 7.4752 0.341333 19.0464 1.1264 34.781867 0.7168 15.701333 1.092267 32.256 1.092267 49.629867 0 17.408-0.546133 33.109333-1.672533 47.172266-1.092267 14.062933-3.140267 22.766933-6.144 26.077867-4.437333 5.802667-8.704 8.465067-12.765867 8.055467-4.096-0.4096-6.144 1.877333-6.144 6.826666 0 2.491733-0.546133 11.1616-1.6384 26.077867-1.1264 14.882133-4.266667 35.566933-9.489067 62.0544a157.559467 157.559467 0 0 1-12.8 37.853867 303.172267 303.172267 0 0 1-17.237333 30.378666c-7.406933 9.966933-14.848 19.0464-22.254933 27.306667-0.750933 10.786133-1.1264 21.128533-1.1264 31.061333v26.077867c0 9.079467 0.375467 16.110933 1.1264 21.0944 0.750933 9.898667 2.9696 16.964267 6.690133 21.0944 3.6864 4.130133 11.127467 7.850667 22.254933 11.1616 3.6864 1.672533 10.376533 4.130133 20.036267 7.441067 9.6256 3.310933 21.162667 7.68 34.474667 13.038933l41.745066 16.759467 41.745067 16.759466a1297.066667 1297.066667 0 0 1 58.9824 25.429334c14.848 8.2944 24.6784 16.964267 29.525333 26.077866 4.778667 9.1136 9.079467 20.6848 12.8 34.747734 1.467733 7.441067 3.515733 21.0944 6.109867 40.96s5.393067 40.5504 8.328533 62.0544c2.9696 21.504 5.393067 41.813333 7.236267 60.8256 1.877333 19.0464 3.1744 31.061333 3.925333 36.010666 0.7168 10.752-0.955733 19.8656-5.0176 27.306667-4.096 7.441067-13.550933 13.243733-28.398933 17.373867-12.629333 3.310933-30.958933 6.826667-55.0912 10.5472-24.098133 3.754667-52.1216 7.236267-84.036267 10.581333a2237.8496 2237.8496 0 0 1-225.962666 11.1616c-42.257067 0-82.705067-0.853333-121.309867-2.491733a2297.821867 2297.821867 0 0 1-106.2912-6.826667 1474.901333 1474.901333 0 0 1-85.674667-9.9328c-24.8832-3.754667-44.373333-7.68-58.4704-11.810133a68.539733 68.539733 0 0 1-23.927466-14.267734 37.717333 37.717333 0 0 1-9.454934-13.653333c-2.218667-5.358933-2.9696-11.3664-2.218666-17.988267a2497.501867 2497.501867 0 0 1 17.8176-104.277333c4.437333-23.176533 8.533333-44.885333 12.219733-65.160533 3.720533-20.2752 6.314667-32.8704 7.816533-37.853867a180.224 180.224 0 0 1 12.8-31.0272c5.563733-10.752 15.018667-21.9136 28.3648-33.518933 6.690133-5.802667 18.909867-11.9808 36.727467-18.602667a914.3296 914.3296 0 0 1 55.637333-18.6368c19.319467-5.802667 37.4784-10.752 54.545067-14.882133s28.228267-7.031467 33.416533-8.704c11.127467-2.4576 20.957867-5.563733 29.4912-9.284267 8.533333-3.754667 12.8-8.9088 12.8-15.530667V515.413333a231.662933 231.662933 0 0 1-23.381333-24.814933 213.230933 213.230933 0 0 1-20.036267-26.692267 246.306133 246.306133 0 0 1-17.8176-32.904533c-10.376533-22.3232-17.066667-42.8032-20.036266-61.44a908.6976 908.6976 0 0 0-5.563734-32.8704c-0.7168-3.310933-3.515733-6.007467-8.328533-8.0896-4.846933-2.048-8.362667-6.417067-10.581333-13.038933a107.1104 107.1104 0 0 1-8.362667-44.680534c0.375467-15.701333 1.297067-38.058667 2.798933-67.003733 2.218667-28.9792 6.485333-56.661333 12.8-83.182933 6.314667-26.453333 20.206933-50.858667 41.745067-73.216 11.127467-10.752 25.941333-19.6608 44.509867-26.692267a305.493333 305.493333 0 0 1 56.763733-15.496533 326.212267 326.212267 0 0 1 55.0912-4.983467c17.442133 0 30.6176 1.2288 39.5264 3.754667 9.659733 3.2768 17.408 6.826667 23.381333 10.513066a81.408 81.408 0 0 1 22.254934 19.8656c2.218667 2.901333 4.437333 5.188267 6.690133 6.826667 3.6864 3.310933 8.533333 4.334933 14.4384 3.106133 5.9392-1.2288 16.349867-0.2048 31.163733 3.072z m-102.4 680.209067l30.037333 129.092267 48.981333-146.432-46.762666-37.2736-32.290134 54.613333z m-80.145067-57.105067l-44.544 39.7312 50.107733 146.466134 26.692267-130.321067-32.256-55.876267zM864.597333 185.2416c10.410667 1.672533 18.773333 7.441067 25.053867 17.408 6.314667 9.898667 9.8304 21.9136 10.581333 35.976533 0 4.130133 0.341333 10.9568 1.092267 20.48a375.125333 375.125333 0 0 1 0 57.105067c-0.7168 8.669867-1.8432 13.858133-3.310933 15.496533-2.9696 3.310933-5.768533 4.778667-8.362667 4.334934-2.594133-0.4096-3.8912 1.024-3.8912 4.369066 0 1.6384-0.2048 6.826667-0.546133 15.496534-0.375467 8.704-2.423467 21.333333-6.144 37.888-1.467733 8.260267-3.6864 15.701333-6.656 22.3232a91.409067 91.409067 0 0 1-10.0352 17.373866c-3.720533 5.802667-8.157867 11.1616-13.346134 16.145067a167.662933 167.662933 0 0 0-1.1264 18.602667v28.5696c0.750933 5.802667 2.218667 9.898667 4.437334 12.3904 2.2528 2.491733 6.690133 4.573867 13.380266 6.212266 2.9696 0.8192 10.001067 3.310933 21.162667 7.441067 11.127467 4.130133 23.176533 8.874667 36.181333 14.267733 12.970667 5.393067 25.019733 10.3424 36.181334 14.916267 11.093333 4.539733 18.875733 8.055467 23.3472 10.5472 8.874667 4.949333 15.018667 10.1376 18.363733 15.496533 3.345067 5.393067 5.7344 12.629333 7.236267 21.742934 0.750933 4.096 1.8432 11.9808 3.345066 23.552 1.467733 11.605333 2.9696 24.029867 4.437334 37.2736 1.501867 13.2096 2.9696 25.224533 4.437333 35.976533 1.501867 10.752 2.2528 17.783467 2.2528 21.0944a27.0336 27.0336 0 0 1-2.798933 16.759467c-2.594133 4.573867-8.328533 7.645867-17.237334 9.3184-7.441067 1.6384-17.066667 3.720533-28.945066 6.212266-11.8784 2.4576-27.4432 4.539733-46.762667 6.212267a175.684267 175.684267 0 0 0-6.656-28.5696 520.192 520.192 0 0 0-7.7824-26.043733 94.651733 94.651733 0 0 0-11.1616-23.586134 135.5776 135.5776 0 0 0-25.6-29.7984 173.738667 173.738667 0 0 0-26.692267-18.6368 150.459733 150.459733 0 0 0-26.7264-11.776c-8.874667-2.901333-17.8176-6.007467-26.692266-9.3184-37.888-14.882133-68.266667-25.258667-91.272534-31.0272-23.005867-5.802667-36.010667-10.752-38.980266-14.882133a21.367467 21.367467 0 0 1-2.7648-8.704 92.945067 92.945067 0 0 1 0.546133-24.814933c10.410667-3.310933 18.193067-5.393067 23.381333-6.212267 5.188267-0.8192 9.284267-1.6384 12.253867-2.491733 5.9392-1.6384 11.502933-3.515733 16.6912-5.563734 5.188267-2.048 7.7824-5.188267 7.7824-9.3184v-43.451733l-2.218667-1.2288-4.437333-2.491733c-1.501867-0.8192-3.003733-2.901333-4.471467-6.212267 4.437333-10.752 8.874667-23.552 13.346134-38.468267a706.286933 706.286933 0 0 0 22.254933-116.667733 906.820267 906.820267 0 0 0 5.563733-99.328V159.232c8.9088-1.672533 18.397867-2.491733 28.398934-2.491733 10.001067 0 17.988267 0.8192 23.927466 2.491733 12.629333 4.096 20.206933 8.260267 22.8352 12.3904 2.594133 4.130133 5.358933 7.441067 8.328534 9.9328 2.9696 1.672533 6.144 2.286933 9.454933 1.877333 3.345067-0.4096 9.454933 0.2048 18.363733 1.8432z m-56.763733 397.2096l7.816533 33.4848 20.036267 7.4752 15.5648-44.714667-23.381333-22.3232-20.036267 26.077867z m-57.856-22.357333l-18.944 21.0944 1.1264 4.983466 34.474667 11.1616 4.471466-13.653333-21.162666-23.552zM255.761067 157.934933a171.1104 171.1104 0 0 0-35.601067-1.2288 188.245333 188.245333 0 0 0-33.962667 6.212267c-12.219733 3.310933-23.552 9.079467-33.928533 17.373867a76.458667 76.458667 0 0 0-21.162667 23.552c-5.188267 9.1136-9.079467 18.432-11.6736 27.9552-2.594133 9.5232-4.266667 18.432-5.0176 26.692266a233.6768 233.6768 0 0 0-1.1264 19.8656c-0.7168 10.752-1.467733 20.48-2.218666 29.149867-0.7168 8.704-0.341333 16.349867 1.1264 22.971733 1.467733 6.621867 2.594133 11.1616 3.345066 13.653334a11.844267 11.844267 0 0 0 4.437334 6.212266 18.432 18.432 0 0 0 5.563733 3.072c1.501867 0.443733 2.9696 6.007467 4.437333 16.759467 0.750933 10.786133 3.1744 21.333333 7.2704 31.675733 4.096 10.3424 8.328533 18.807467 12.8 25.429334 2.218667 4.130133 4.983467 8.0896 8.328534 11.810133 3.345067 3.720533 6.485333 7.645867 9.454933 11.776 2.9696 4.130133 6.690133 8.2944 11.127467 12.424533v35.976534a25.9072 25.9072 0 0 1-4.983467 12.424533c-2.594133 3.310933-7.611733 5.802667-15.018667 7.441067-3.754667 0.8192-9.864533 2.491733-18.397866 4.983466l-27.818667 8.055467a834.901333 834.901333 0 0 0-30.037333 9.3184c-10.0352 3.310933-17.988267 6.178133-23.927467 8.669867-21.504 11.605333-34.5088 31.4368-38.980267 59.5968a1455.445333 1455.445333 0 0 0-10.001066 49.629866c-3.720533 19.8656-6.314667 33.928533-7.7824 42.222934-1.501867 8.260267-1.297067 16.964267 0.546133 26.043733 1.8432 9.1136 7.9872 14.916267 18.363733 17.408 5.188267 1.6384 11.6736 2.8672 19.456 3.6864 7.816533 0.853333 15.428267 2.082133 22.869334 3.754667 8.123733 1.6384 16.657067 2.8672 25.6 3.720533 1.467733-9.9328 3.6864-19.8656 6.656-29.7984 2.218667-9.1136 5.358933-18.2272 9.454933-27.306667 4.096-9.1136 9.079467-17.783467 15.018667-26.077866a147.797333 147.797333 0 0 1 21.7088-21.7088c8.533333-7.031467 16.896-13.858133 25.053866-20.48 8.874667-7.441067 18.5344-14.472533 28.945067-21.0944l-11.1616-31.061334 24.507733-21.0944 25.6 32.290134 13.346134-3.754667a15.872 15.872 0 0 0 6.690133-2.4576 9.079467 9.079467 0 0 1 4.437333-1.2288l21.162667-27.306667 18.909867 17.373867c3.720533-0.853333 7.0656-1.672533 10.0352-2.491733 2.9696-0.8192 6.280533-1.6384 10.001066-2.491734l11.127467-2.4576c8.192-1.672533 15.018667-3.310933 20.5824-4.983466 5.563733-1.6384 8.738133-5.802667 9.489067-12.424534 0-3.310933 0.170667-5.973333 0.546133-8.055466a31.9488 31.9488 0 0 0 0.546133-5.597867v-3.720533a506.88 506.88 0 0 1-18.909866-7.441067l-15.598934-4.949333a68.744533 68.744533 0 0 1-12.219733-4.983467c-5.9392-2.4576-9.284267-5.973333-10.0352-10.5472a116.394667 116.394667 0 0 1-1.092267-17.988267v-12.424533c0-4.096 0.341333-8.260267 1.092267-12.3904 0-4.164267 0.375467-9.1136 1.1264-14.916267-5.9392-9.898667-11.8784-20.6848-17.8176-32.256a307.268267 307.268267 0 0 1-15.018667-34.133333A276.753067 276.753067 0 0 1 261.3248 337.92a496.7424 496.7424 0 0 1-7.7824-60.8256c-1.467733-21.504-1.8432-40.96-1.092267-58.333867 0-20.6848 1.092267-40.96 3.310934-60.8256z" p-id="2838"></path></svg>
