<svg  class="icon" viewBox="0 0 1024 1024" version="1.1" xmlns="http://www.w3.org/2000/svg"  width="200" height="200"><path d="M512 32c206.186667 0 373.333333 167.146667 373.333333 373.333333a372.053333 372.053333 0 0 1-102.912 257.386667L512 988.8 241.6 662.741333A372.053333 372.053333 0 0 1 138.666667 405.333333C138.666667 199.146667 305.813333 32 512 32z m0 746.666667a373.546667 373.546667 0 0 1-103.061333-14.4L512 888.533333l103.082667-124.288A373.546667 373.546667 0 0 1 512 778.666667z m0-682.666667C341.162667 96 202.666667 234.496 202.666667 405.333333S341.162667 714.666667 512 714.666667 821.333333 576.170667 821.333333 405.333333 682.837333 96 512 96z m74.666667 128a138.666667 138.666667 0 1 1 0 277.333333H426.666667v106.666667h-64v-384h224z m0 64H426.666667v149.333333h160a74.666667 74.666667 0 0 0 0-149.333333z" fill="#1296db" ></path></svg>
